<?xml version="1.0" encoding="utf-8"?>
<!-- Generator: Adobe Illustrator 21.0.0, SVG Export Plug-In . SVG Version: 6.00 Build 0)  -->
<svg version="1.1" id="cloud_svg" xmlns:svg="http://www.w3.org/2000/svg"
	 xmlns="http://www.w3.org/2000/svg" xmlns:xlink="http://www.w3.org/1999/xlink" x="0px" y="0px" viewBox="0 0 151.5 95.9"
	 style="enable-background:new 0 0 151.5 95.9;" xml:space="preserve">
	  <pattern id="img1" patternUnits="userSpaceOnUse" width="100" height="100">
    <image xlink:href="pattern.png" x="0" y="0" width="100" height="100" />
  </pattern>
<style type="text/css">
	.st0{fill:#bbbbbb;}
	.st1{fill:#f3f3f3;}
</style>
<!-- #A0A0A0 -->
<g id="cloud">
	<path id="path2844" class="st0" d="M108.8,28.6C107,42,91.9,51.1,75.1,48.9S45.9,34.1,47.7,20.7C49.4,7.2,64.5-1.9,81.3,0.3
		C98.2,2.5,110.5,15.1,108.8,28.6z"/>
	<path id="path2844-3" class="st1" d="M107.3,29.2c-1.7,13.3-16.2,22.4-32.4,20.3S46.9,35,48.7,21.6C50.4,8.3,64.9-0.8,81.1,1.3
		S109,15.9,107.3,29.2z"/>
	<path id="path2844-9" class="st1" d="M106,59.5c-1.5,12.2-13.9,20.6-27.6,18.9s-23.5-13.1-22-25.3C58,40.9,70.4,32.5,84,34.3
		S107.6,47.4,106,59.5L106,59.5z"/>
	<path id="path2844-5" class="st0" d="M127.8,45c-1.6,12.2-14,20.6-27.6,18.8c-13.8-1.7-23.6-13-22-25.2c1.6-12.2,14-20.6,27.6-18.8
		C119.5,21.6,129.3,32.9,127.8,45z"/>
	<path id="path2844-11" class="st0" d="M71.8,44.9c-1.6,12.2-14,20.6-27.6,18.8c-13.8-1.7-23.6-13-22-25.2s14-20.6,27.6-18.8
		C63.5,21.4,73.3,32.7,71.8,44.9z"/>
	<path id="path2844-11-1" class="st1" d="M74,46.3c-1.6,12.2-14.2,20.6-28.3,18.8c-14-1.8-24.1-13.2-22.6-25.3
		C24.8,27.6,37.4,19.2,51.5,21C65.5,22.8,75.6,34.2,74,46.3z"/>
	<path id="path2844-1" class="st0" d="M39.7,60.4C38.4,70.2,28.6,77,17.6,75.6C6.7,74.2-1.1,65.1,0.1,55.3s11.2-16.6,22.1-15.2
		S41,50.6,39.7,60.4z"/>
	<path id="path2844-1-76" class="st1" d="M40.2,60.9C39,70.1,29.4,76.5,18.6,75.1S0.2,65.1,1.3,55.8c1.2-9.2,10.9-15.6,21.6-14.2
		C33.7,43,41.4,51.6,40.2,60.9z"/>
	<path id="path2844-5-4" class="st1" d="M127.9,47.2C126.2,60,113.6,68.8,99.7,67c-13.9-1.8-23.9-13.6-22.3-26.3
		c1.7-12.8,14.3-21.6,28.2-19.8C119.6,22.6,129.6,34.4,127.9,47.2z"/>
	<path id="path2844-2" class="st0" d="M151.3,55.7c-1.6,12.2-14,20.6-27.6,18.8s-23.5-13.1-21.9-25.2c1.6-12.2,14-20.6,27.6-18.8
		C143.1,32.2,152.9,43.5,151.3,55.7z"/>
	<path id="path2844-2-2" class="st1" d="M150.6,55.5c-1.5,11.5-13.9,19.4-27.7,17.6s-23.8-12.5-22.3-24s13.9-19.4,27.7-17.6
		C142.1,33.3,152.1,44.1,150.6,55.5z"/>
	<path id="path2844-1-7" class="st0" d="M39.4,74.8c-0.8,6.5-6.7,11.1-13,10.3c-6.4-0.8-10.8-6.8-10-13.3s6.7-11.1,13-10.3
		C35.7,62.4,40.2,68.3,39.4,74.8z"/>
	<path id="path2844-1-7-2" class="st1" d="M39.8,74.2C39,80.6,33.2,85.1,27,84.3c-6.3-0.8-10.7-6.7-9.8-13.1
		C18,64.8,23.8,60.3,30,61.1C36.2,61.9,40.6,67.7,39.8,74.2z"/>
	<path id="path2844-4" class="st0" d="M81.9,76.8c-1.6,12.2-14,20.6-27.6,18.8c-13.7-1.8-23.5-13.1-21.9-25.2
		C34,58.2,46.4,49.8,60,51.6C73.6,53.3,83.5,64.6,81.9,76.8z"/>
	<path id="path2844-4-2" class="st1" d="M82.1,76.2c-1.5,11.9-13.6,20.2-27,18.4c-13.4-1.7-23-12.8-21.4-24.7
		c1.5-11.9,13.6-20.2,27-18.4S83.6,64.3,82.1,76.2z"/>
	<path id="path2844-8" class="st0" d="M137.8,73.8c-1.6,12.2-14,20.6-27.6,18.8c-13.7-1.8-23.5-13.1-21.9-25.2
		c1.6-12.2,14-20.6,27.6-18.8C129.5,50.4,139.4,61.7,137.8,73.8L137.8,73.8z"/>
	<path id="path2844-8-1" class="st1" d="M136.5,73.4c-1.5,11.7-13.9,19.8-27.6,18S85.3,78.7,86.8,67s13.9-19.8,27.6-18
		C128.1,50.7,138,61.7,136.5,73.4L136.5,73.4z"/>
	<path id="path2844-1-7-6" class="st0" d="M86.2,95.3c-8.1,0.3-14.9-5.8-15.2-13.5c-0.3-7.7,6-14.3,14-14.5
		c8.1-0.3,14.9,5.8,15.2,13.5S94.2,95,86.2,95.3z"/>
	<path id="path2844-1-7-6-5" class="st1" d="M86.7,94c-7.9,0.3-14.6-5.7-14.9-13.5c-0.3-7.7,5.9-14.3,13.8-14.6
		c7.9-0.3,14.6,5.7,14.9,13.5C100.8,87.2,94.6,93.7,86.7,94z"/>
</g>
</svg>
